<svg xmlns="http://www.w3.org/2000/svg" xmlns:xlink="http://www.w3.org/1999/xlink" width="61.5" height="61.483" viewBox="0 0 61.5 61.483">
  <defs>
    <radialGradient id="radial-gradient" cx="0.266" cy="1.077" r="0.991" gradientTransform="translate(-2.918 5.666) rotate(-90) scale(1 0.93)" gradientUnits="objectBoundingBox">
      <stop offset="0" stop-color="#fd5"/>
      <stop offset="0.1" stop-color="#fd5"/>
      <stop offset="0.5" stop-color="#ff543e"/>
      <stop offset="1" stop-color="#c837ab"/>
    </radialGradient>
    <radialGradient id="radial-gradient-2" cx="-0.168" cy="0.072" r="0.443" gradientTransform="matrix(0.196, 0.981, -4.042, 0.809, 15.634, -0.42)" gradientUnits="objectBoundingBox">
      <stop offset="0" stop-color="#3771c8"/>
      <stop offset="0.128" stop-color="#3771c8"/>
      <stop offset="1" stop-color="#60f" stop-opacity="0"/>
    </radialGradient>
  </defs>
  <g id="Instagram_logo_2016" transform="translate(-1.001 -1)">
    <path id="Path_4" data-name="Path 4" d="M30.757,0C17.919,0,14.164.013,13.434.074A15.256,15.256,0,0,0,7.374,1.6,12.275,12.275,0,0,0,3.841,4.183,13.2,13.2,0,0,0,.28,11.662C.071,13.1.011,13.393,0,20.738c0,2.448,0,5.67,0,9.992C0,43.557.013,47.308.074,48.036a15.445,15.445,0,0,0,1.466,5.941,12.954,12.954,0,0,0,8.4,6.858,21.817,21.817,0,0,0,4.465.591c.762.033,8.523.057,16.29.057s15.533-.009,16.276-.047a21.008,21.008,0,0,0,4.626-.605,12.875,12.875,0,0,0,8.4-6.873,15.191,15.191,0,0,0,1.45-5.826c.042-.53.059-8.976.059-17.411s-.019-16.867-.061-17.4a15.021,15.021,0,0,0-1.479-5.884,12.188,12.188,0,0,0-2.632-3.606A13.276,13.276,0,0,0,49.838.282C48.4.074,48.115.013,40.765,0Z" transform="translate(1.004 1)" fill="url(#radial-gradient)"/>
    <path id="Path_5" data-name="Path 5" d="M30.757,0C17.919,0,14.164.013,13.434.074A15.256,15.256,0,0,0,7.374,1.6,12.275,12.275,0,0,0,3.841,4.183,13.2,13.2,0,0,0,.28,11.662C.071,13.1.011,13.393,0,20.738c0,2.448,0,5.67,0,9.992C0,43.557.013,47.308.074,48.036a15.445,15.445,0,0,0,1.466,5.941,12.954,12.954,0,0,0,8.4,6.858,21.817,21.817,0,0,0,4.465.591c.762.033,8.523.057,16.29.057s15.533-.009,16.276-.047a21.008,21.008,0,0,0,4.626-.605,12.875,12.875,0,0,0,8.4-6.873,15.191,15.191,0,0,0,1.45-5.826c.042-.53.059-8.976.059-17.411s-.019-16.867-.061-17.4a15.021,15.021,0,0,0-1.479-5.884,12.188,12.188,0,0,0-2.632-3.606A13.276,13.276,0,0,0,49.838.282C48.4.074,48.115.013,40.765,0Z" transform="translate(1.004 1)" fill="url(#radial-gradient-2)"/>
    <path id="Path_6" data-name="Path 6" d="M40.705,18c-6.166,0-6.94.027-9.361.137a16.661,16.661,0,0,0-5.51,1.055,11.614,11.614,0,0,0-6.642,6.639,16.584,16.584,0,0,0-1.055,5.51C18.028,33.763,18,34.538,18,40.7s.027,6.937.137,9.359a16.685,16.685,0,0,0,1.055,5.51,11.618,11.618,0,0,0,6.639,6.642,16.675,16.675,0,0,0,5.511,1.055c2.422.11,3.2.137,9.36.137s6.938-.027,9.359-.137a16.685,16.685,0,0,0,5.513-1.055,11.632,11.632,0,0,0,6.639-6.642,16.828,16.828,0,0,0,1.055-5.51c.109-2.422.137-3.194.137-9.359s-.028-6.94-.137-9.361a16.82,16.82,0,0,0-1.055-5.51,11.616,11.616,0,0,0-6.641-6.64,16.713,16.713,0,0,0-5.515-1.055C47.637,18.027,46.866,18,40.7,18Zm-2.037,4.091h2.037c6.062,0,6.78.022,9.174.131A12.57,12.57,0,0,1,54.095,23,7.523,7.523,0,0,1,58.4,27.313a12.544,12.544,0,0,1,.782,4.214c.109,2.393.132,3.112.132,9.171s-.024,6.778-.132,9.171a12.557,12.557,0,0,1-.782,4.214,7.529,7.529,0,0,1-4.308,4.306,12.524,12.524,0,0,1-4.215.782c-2.393.109-3.112.132-9.174.132s-6.781-.024-9.174-.132a12.594,12.594,0,0,1-4.216-.783,7.522,7.522,0,0,1-4.31-4.307,12.544,12.544,0,0,1-.782-4.214c-.109-2.393-.131-3.112-.131-9.175s.022-6.778.131-9.171a12.569,12.569,0,0,1,.782-4.215A7.524,7.524,0,0,1,27.315,23a12.542,12.542,0,0,1,4.216-.783c2.094-.095,2.906-.123,7.137-.128Zm14.156,3.77a2.724,2.724,0,1,0,2.724,2.723,2.724,2.724,0,0,0-2.724-2.723ZM40.705,29.044A11.658,11.658,0,1,0,52.363,40.7,11.66,11.66,0,0,0,40.705,29.044Zm0,4.091A7.568,7.568,0,1,1,33.138,40.7,7.568,7.568,0,0,1,40.705,33.136Z" transform="translate(-8.959 -8.959)" fill="#fff"/>
  </g>
</svg>
