<svg id="Snapchat-Logo.wine" xmlns="http://www.w3.org/2000/svg" width="61.5" height="61.5" viewBox="0 0 61.5 61.5">
  <path id="Path_1" data-name="Path 1" d="M51.7,0a9.8,9.8,0,0,1,9.8,9.8V51.7a9.8,9.8,0,0,1-9.8,9.8H9.8A9.8,9.8,0,0,1,0,51.7V9.8A9.8,9.8,0,0,1,9.8,0Z" transform="translate(0)" fill="#fffc00"/>
  <path id="Path_2" data-name="Path 2" d="M54.294,44.195c-.181-.6-1.049-1.023-1.049-1.023-.082-.043-.155-.082-.216-.112a16.733,16.733,0,0,1-3.806-2.494,12.9,12.9,0,0,1-2.205-2.512A9.479,9.479,0,0,1,45.8,35.547a.853.853,0,0,1,0-.621,1.03,1.03,0,0,1,.3-.341c.488-.345,1.273-.854,1.756-1.165.419-.272.777-.5.988-.652a4.316,4.316,0,0,0,1.415-1.48,2.552,2.552,0,0,0,.121-2.145,2.489,2.489,0,0,0-2.46-1.571,3.888,3.888,0,0,0-.794.086,12.386,12.386,0,0,0-1.834.591.055.055,0,0,1-.078-.056,37.559,37.559,0,0,0-.026-4.764,11.736,11.736,0,0,0-.954-3.918,10.766,10.766,0,0,0-4.4-4.717,13.121,13.121,0,0,0-12.562,0,10.745,10.745,0,0,0-4.4,4.717,11.608,11.608,0,0,0-.954,3.918,36.765,36.765,0,0,0-.026,4.764.058.058,0,0,1-.082.056,12.386,12.386,0,0,0-1.834-.591,3.824,3.824,0,0,0-.794-.086,2.5,2.5,0,0,0-2.46,1.571,2.552,2.552,0,0,0,.121,2.145,4.357,4.357,0,0,0,1.415,1.48c.207.147.57.38.988.652.47.306,1.234.8,1.726,1.143a1.024,1.024,0,0,1,.332.363.884.884,0,0,1-.009.647,9.51,9.51,0,0,1-1.208,2.481,12.78,12.78,0,0,1-2.205,2.512,16.738,16.738,0,0,1-3.806,2.494c-.069.035-.151.073-.237.125,0,0-.863.44-1.027,1.01a1.986,1.986,0,0,0,1.053,2.054A11.3,11.3,0,0,0,17,47.514c.211.056.4.108.574.16a1.151,1.151,0,0,1,.5.289,1.551,1.551,0,0,1,.216.686,2.027,2.027,0,0,0,.816,1.372,4.353,4.353,0,0,0,2.339.483,12.691,12.691,0,0,1,3.72.565A9.542,9.542,0,0,1,27.137,52.1a11.179,11.179,0,0,0,12.843-.009,9.648,9.648,0,0,1,1.955-1.014,12.69,12.69,0,0,1,3.72-.565,4.313,4.313,0,0,0,2.339-.483,2.1,2.1,0,0,0,.833-1.463,1.3,1.3,0,0,1,.2-.591,1.135,1.135,0,0,1,.479-.28c.177-.056.375-.108.6-.168a11.1,11.1,0,0,0,2.857-1.092c1.39-.79,1.485-1.756,1.338-2.235Z" transform="translate(-2.809 -2.902)" fill="#fff"/>
  <path id="Path_3" data-name="Path 3" d="M55.126,43.364a3.07,3.07,0,0,0-1.558-1.653,3.778,3.778,0,0,0-.337-.177c-.2-.1-.4-.2-.6-.306a13.175,13.175,0,0,1-4.82-4.134,9.686,9.686,0,0,1-.829-1.467.7.7,0,0,1-.022-.574.911.911,0,0,1,.268-.276q.485-.321.975-.634c.445-.289.8-.518,1.023-.673a5.548,5.548,0,0,0,1.821-1.938,3.853,3.853,0,0,0,.186-3.206,3.787,3.787,0,0,0-3.668-2.408,4.977,4.977,0,0,0-1.066.116l-.276.065a30.975,30.975,0,0,0-.1-3.142,11.448,11.448,0,0,0-2.973-7.207,11.84,11.84,0,0,0-3.025-2.438,13.718,13.718,0,0,0-6.931-1.778,13.749,13.749,0,0,0-6.922,1.774,11.734,11.734,0,0,0-3.029,2.438,11.449,11.449,0,0,0-2.973,7.207c-.09,1.053-.112,2.132-.1,3.142l-.276-.065a5.008,5.008,0,0,0-1.066-.117,3.787,3.787,0,0,0-3.668,2.408,3.853,3.853,0,0,0,.186,3.206,5.588,5.588,0,0,0,1.821,1.938c.229.16.578.388,1.023.673.242.155.591.384.936.613a1.041,1.041,0,0,1,.3.3.705.705,0,0,1-.034.6,9.521,9.521,0,0,1-.816,1.437,13.119,13.119,0,0,1-4.682,4.061c-1.066.565-2.171.941-2.637,2.21a2.8,2.8,0,0,0,.772,2.969,4.513,4.513,0,0,0,1.131.854,12.254,12.254,0,0,0,2.762,1.1,1.763,1.763,0,0,1,.557.25c.328.285.28.716.716,1.346a3.121,3.121,0,0,0,.816.833,5.376,5.376,0,0,0,3.025.712,11.558,11.558,0,0,1,3.362.5,8.652,8.652,0,0,1,1.7.9,12.468,12.468,0,0,0,14.2-.009,8.952,8.952,0,0,1,1.683-.889,11.558,11.558,0,0,1,3.362-.5,5.385,5.385,0,0,0,3.025-.712A3.179,3.179,0,0,0,49.3,49.7c.311-.531.306-.906.6-1.161a1.751,1.751,0,0,1,.527-.237,12.269,12.269,0,0,0,2.8-1.118,4.395,4.395,0,0,0,1.187-.91l.013-.013a2.782,2.782,0,0,0,.7-2.9Zm-3.094,1.661c-1.89,1.044-3.146.932-4.121,1.558-.829.535-.341,1.687-.941,2.1-.742.514-2.93-.035-5.757.9-2.33.773-3.819,2.986-8.018,2.986s-5.653-2.205-8.018-2.986c-2.827-.932-5.019-.384-5.757-.9-.6-.414-.112-1.566-.941-2.1-.975-.63-2.231-.518-4.121-1.558-1.2-.665-.522-1.075-.121-1.269,6.844-3.31,7.932-8.428,7.983-8.812a1.212,1.212,0,0,0-.38-1.29c-.488-.453-2.658-1.8-3.258-2.214-1-.695-1.433-1.39-1.109-2.244a1.338,1.338,0,0,1,1.359-.811,2.558,2.558,0,0,1,.544.06c1.092.237,2.153.785,2.766.932a.92.92,0,0,0,.224.03c.328,0,.44-.164.419-.539a39.891,39.891,0,0,1-.052-5.7,9.057,9.057,0,0,1,2.373-5.8A10.593,10.593,0,0,1,33.2,14a10.566,10.566,0,0,1,8.091,3.366,9.036,9.036,0,0,1,2.373,5.8,38.645,38.645,0,0,1-.052,5.7c-.026.393.095.539.419.539a.891.891,0,0,0,.224-.03c.613-.147,1.674-.695,2.766-.932a2.56,2.56,0,0,1,.544-.06,1.344,1.344,0,0,1,1.359.811c.324.854-.117,1.549-1.109,2.244-.6.419-2.771,1.761-3.258,2.214a1.208,1.208,0,0,0-.38,1.29c.048.384,1.139,5.5,7.983,8.812C52.55,43.951,53.236,44.361,52.032,45.025Z" transform="translate(-2.442 -2.537)"/>
</svg>
